<svg width="321" height="47" viewBox="0 0 321 47" fill="none" xmlns="http://www.w3.org/2000/svg">
<path d="M210.654 43.7649C210.654 43.4039 210.95 43.1113 211.314 43.1113H320.335C320.7 43.1113 320.995 43.4039 320.995 43.7649C320.995 44.1258 320.7 44.4185 320.335 44.4185H211.314C210.95 44.4185 210.654 44.1258 210.654 43.7649Z" fill="#35C79C"/>
<path d="M222.769 14.6794H224.207V32.4945H222.769V24.2741H212.061V32.4945H210.623V14.6794H212.061V22.9761H222.769V14.6794Z" fill="white"/>
<path d="M233.557 14.6794H244.984V16.0028H234.995V22.7725H242.57V24.0959H234.995V31.1711H244.984V32.4945H233.557V14.6794Z" fill="white"/>
<path d="M260.032 14.3994L267.042 32.4945H265.502L263.242 26.5646H255.205L252.945 32.4945H251.43L258.44 14.3994H260.032ZM259.288 16.0791H259.185L255.693 25.2666H262.78L259.288 16.0791Z" fill="white"/>
<path d="M274.386 32.4945V14.6794H275.824V31.1711H284.785V32.4945H274.386Z" fill="white"/>
<path d="M286.995 14.6794H299.962V16.0028H294.21V32.4945H292.772V16.0028H286.995V14.6794Z" fill="white"/>
<path d="M319.561 14.6794H320.999V32.4945H319.561V24.2741H308.854V32.4945H307.416V14.6794H308.854V22.9761H319.561V14.6794Z" fill="white"/>
<path d="M193.614 42.9849C191.437 45.143 187.907 45.143 185.729 42.9849L154.188 11.7233C152.011 9.56514 152.011 6.06607 154.188 3.90791C156.366 1.74974 159.896 1.74975 162.073 3.90791L193.614 35.1695C195.792 37.3276 195.792 40.8267 193.614 42.9849Z" fill="#D84BC9"/>
<path d="M154.144 43.0923C151.966 40.9341 151.966 37.435 154.144 35.2769L185.685 4.01529C187.862 1.85712 191.393 1.85712 193.57 4.01529C195.748 6.17345 195.748 9.67252 193.57 11.8307L162.029 43.0923C159.852 45.2504 156.321 45.2504 154.144 43.0923Z" fill="#35C79C"/>
<path d="M23.3558 31.9599C23.3558 33.8142 22.5957 35.3787 21.105 36.6245C19.5849 37.8993 17.5387 38.5077 14.9664 38.5077C13.5633 38.5077 12.2187 38.3628 10.9617 38.0151C9.70477 37.6675 8.71091 37.2908 7.9509 36.8852C7.19089 36.4796 6.4601 35.9871 5.81702 35.4366C5.17393 34.8861 4.73546 34.5095 4.56007 34.2777C4.38469 34.0459 4.23853 33.8721 4.18007 33.7562L0 37.8993L0.584625 38.6236C0.9354 39.0582 1.54926 39.5797 2.36773 40.217C3.18621 40.8544 4.15084 41.4918 5.26162 42.1292C6.37241 42.7666 7.77551 43.2881 9.50015 43.7517C11.2248 44.2152 13.0371 44.447 14.9664 44.447C19.6434 44.447 23.2973 43.2881 25.9573 40.9703C28.5882 38.6525 29.9328 35.6394 29.9328 31.9889C29.9328 29.9029 29.5236 28.1066 28.7051 26.6001C27.8866 25.0935 26.805 23.9346 25.5189 23.1234C24.2327 22.3122 22.8004 21.6168 21.2219 21.0374C19.6434 20.458 18.0649 19.9944 16.4864 19.5888C14.9079 19.1832 13.4464 18.7486 12.1602 18.2561C10.874 17.7635 9.8217 17.0682 9.00322 16.199C8.18475 15.3299 7.77551 14.2579 7.77551 12.9831C7.77551 11.5635 8.4186 10.3177 9.734 9.24568C11.0494 8.20268 12.8033 7.65221 14.9664 7.65221C16.0187 7.65221 17.0418 7.79707 18.0064 8.02885C18.9711 8.2896 19.7603 8.57932 20.3449 8.89801C20.9296 9.21671 21.485 9.56438 22.0111 9.96999C22.5373 10.3756 22.8588 10.6653 23.005 10.8392C23.1511 11.013 23.2681 11.1579 23.3558 11.2158L27.5358 7.04379L27.0681 6.46434C26.7174 6.11668 26.1912 5.68209 25.4896 5.16059C24.7881 4.63909 23.9404 4.14656 23.005 3.62506C22.0696 3.10356 20.8711 2.66898 19.4388 2.29234C18.0064 1.9157 16.5157 1.71289 14.9664 1.71289C10.7279 1.71289 7.36627 2.81384 4.91085 4.95779C2.42619 7.10173 1.19848 9.79615 1.19848 12.9831C1.19848 15.0981 1.60772 16.8944 2.42619 18.4009C3.24467 19.9075 4.29699 21.0374 5.58317 21.8486C6.86934 22.6598 8.3309 23.3552 9.90939 23.9346C11.4879 24.5141 13.0664 25.0066 14.6449 25.4122C16.2233 25.8178 17.6557 26.2524 18.9418 26.7449C20.228 27.2375 21.3096 27.9038 22.128 28.773C22.9465 29.6422 23.3558 30.6852 23.3558 31.9599Z" fill="white"/>
<path d="M40.9916 15.3588H34.9991V43.8386H40.9916V15.3588ZM41.6054 6.46434C41.6054 5.45031 41.2546 4.61012 40.5823 3.94376C39.8808 3.24842 39.0331 2.92973 38.01 2.92973C36.9576 2.92973 36.1099 3.24842 35.4376 3.94376C34.7361 4.61012 34.4145 5.45031 34.4145 6.46434C34.4145 7.50735 34.7361 8.34754 35.4376 9.0139C36.1099 9.70924 36.9576 10.0279 38.01 10.0279C39.0331 10.0279 39.8808 9.70924 40.5823 9.0139C41.2546 8.34754 41.6054 7.50735 41.6054 6.46434Z" fill="white"/>
<path d="M49.6826 2.29234V43.8386H56.2596V29.0048H66.4321C70.4075 29.0048 73.7691 27.73 76.4584 25.1225C79.1477 22.544 80.5215 19.386 80.5215 15.6775C80.5215 11.9691 79.1477 8.8111 76.4584 6.20359C73.7691 3.59609 70.4075 2.32131 66.4321 2.32131L49.6826 2.29234ZM66.4321 8.26062C68.4783 8.26062 70.2614 8.95596 71.7229 10.4046C73.1845 11.8242 73.9153 13.5915 73.9153 15.6775C73.9153 17.7635 73.1845 19.5308 71.7229 20.9505C70.2614 22.3701 68.4783 23.0655 66.4321 23.0655H56.2596V8.23165L66.4321 8.26062Z" fill="white"/>
<path d="M92.4572 2.29234H86.4941V43.8386H92.4572V28.4253C92.4572 25.8178 93.1296 23.7608 94.4742 22.3122C95.8188 20.8636 97.6604 20.1103 99.9404 20.1103C101.899 20.1103 103.536 20.8056 104.851 22.1383C106.167 23.5 106.839 25.2094 106.839 27.2664V43.8675H112.831V27.2664C112.831 23.4421 111.75 20.429 109.587 18.1691C107.424 15.9093 104.588 14.7794 101.139 14.7794C100.145 14.7794 99.1512 14.8953 98.1866 15.156C97.1927 15.4168 96.4035 15.7065 95.7604 16.0252C95.1173 16.3439 94.5034 16.6916 93.948 17.0972C93.3926 17.5028 93.0126 17.7925 92.8372 17.9663C92.6619 18.1402 92.5157 18.2561 92.4572 18.343V2.29234Z" fill="white"/>
<path d="M141.254 29.6132C141.254 32.2786 140.347 34.5095 138.593 36.3348C136.81 38.189 134.706 39.0871 132.28 39.0871C129.824 39.0871 127.719 38.189 125.936 36.3348C124.153 34.5095 123.276 32.2786 123.276 29.6132C123.276 26.9477 124.153 24.7169 125.936 22.8626C127.719 21.0374 129.824 20.1103 132.28 20.1103C134.706 20.1103 136.81 21.0374 138.593 22.8626C140.347 24.7169 141.254 26.9477 141.254 29.6132ZM117.313 29.6132C117.313 33.6114 118.775 37.0591 121.756 40.0142C124.738 42.9694 128.246 44.447 132.28 44.447C136.313 44.447 139.792 42.9694 142.774 40.0142C145.755 37.0591 147.246 33.6114 147.246 29.6132C147.246 25.615 145.755 22.1383 142.774 19.1832C139.792 16.228 136.313 14.7504 132.28 14.7504C128.246 14.7504 124.738 16.228 121.756 19.1832C118.775 22.1383 117.313 25.615 117.313 29.6132Z" fill="white"/>
</svg>
