<svg width="194" height="29" viewBox="0 0 194 29" fill="none" xmlns="http://www.w3.org/2000/svg">
<path d="M124.322 25.1369C124.322 24.9049 124.505 24.7168 124.731 24.7168H193.59C193.816 24.7168 193.998 24.9049 193.998 25.1369C193.998 25.3689 193.816 25.557 193.59 25.557H124.731C124.505 25.557 124.322 25.3689 124.322 25.1369Z" fill="#35C79C"/>
<path d="M192.379 8.08008H193.554V19.5121H192.379V14.384H186.11V19.5121H184.936V8.08008H186.11V13.2735H192.379V8.08008Z" fill="#202020"/>
<path d="M172.172 8.08008H180.314V9.19062H176.838V19.5121H175.664V9.19062H172.172V8.08008Z" fill="#202020"/>
<path d="M164.174 19.5121V8.08008H165.348V18.4015H170.697V19.5121H164.174Z" fill="#202020"/>
<path d="M155.366 7.93359L159.635 19.5126H158.381L157.096 15.9687H152.287L151.017 19.5126H149.779L154.065 7.93359H155.366ZM154.731 9.32177H154.668L152.684 14.8744H156.731L154.731 9.32177Z" fill="#202020"/>
<path d="M138.588 8.08008H145.746V9.19062H139.762V13.1591H144.302V14.2697H139.762V18.4015H145.746V19.5121H138.588V8.08008Z" fill="#202020"/>
<path d="M131.697 8.08008H132.872V19.5121H131.697V14.384H125.428V19.5121H124.254V8.08008H125.428V13.2735H131.697V8.08008Z" fill="#202020"/>
<path d="M115.07 26.5225C113.776 27.8541 111.677 27.8541 110.383 26.5225L91.6379 7.2334C90.3438 5.90177 90.3438 3.74277 91.6379 2.41114C92.932 1.07951 95.0302 1.07951 96.3243 2.41114L115.07 21.7002C116.364 23.0318 116.364 25.1908 115.07 26.5225Z" fill="#D239DF"/>
<path d="M91.6127 26.5889C90.3186 25.2572 90.3186 23.0982 91.6127 21.7666L110.358 2.47754C111.652 1.14591 113.75 1.14591 115.045 2.47754C116.339 3.80917 116.339 5.96817 115.045 7.29981L96.2991 26.5889C95.005 27.9205 92.9068 27.9205 91.6127 26.5889Z" fill="#35C79C"/>
<path d="M83.9509 18.2722C83.9509 16.6276 83.4123 15.2511 82.37 14.107C81.3103 12.9808 80.0594 12.4087 78.6175 12.4087C77.1582 12.4087 75.9073 12.9808 74.8476 14.107C73.7879 15.2511 73.2667 16.6276 73.2667 18.2722C73.2667 19.9169 73.7879 21.2933 74.8476 22.4196C75.9073 23.5637 77.1582 24.1178 78.6175 24.1178C80.0594 24.1178 81.3103 23.5637 82.37 22.4196C83.4123 21.2933 83.9509 19.9169 83.9509 18.2722ZM69.7227 18.2722C69.7227 15.8053 70.5913 13.6601 72.3633 11.8367C74.1353 10.0133 76.22 9.10156 78.6175 9.10156C81.0149 9.10156 83.0823 10.0133 84.8543 11.8367C86.6263 13.6601 87.5123 15.8053 87.5123 18.2722C87.5123 20.7392 86.6263 22.8665 84.8543 24.6899C83.0823 26.5133 81.0149 27.425 78.6175 27.425C76.22 27.425 74.1353 26.5133 72.3633 24.6899C70.5913 22.8665 69.7227 20.7392 69.7227 18.2722Z" fill="#3E3E3E"/>
<path d="M54.9503 1.41406V11.3176C54.985 11.264 55.0719 11.1925 55.1761 11.0853C55.2804 10.978 55.5062 10.7992 55.8363 10.549C56.1664 10.2987 56.5312 10.0842 56.9134 9.88753C57.2956 9.69089 57.7647 9.51212 58.3553 9.35123C58.9286 9.19034 59.5193 9.11884 60.11 9.11884C62.16 9.11884 63.8451 9.81602 65.1307 11.2104C66.4163 12.6048 67.0591 14.4639 67.0591 16.8236V27.0669H63.4977V16.8236C63.4977 15.5544 63.0981 14.4997 62.3163 13.6595C61.5345 12.8372 60.5617 12.4081 59.3977 12.4081C58.0426 12.4081 56.9481 12.8729 56.149 13.7667C55.3499 14.6606 54.9503 15.9298 54.9503 17.5387V27.049H51.4062V1.41406H54.9503Z" fill="#3E3E3E"/>
<path d="M29.5273 1.41406L39.4819 1.43194C41.8446 1.43194 43.8425 2.21851 45.4407 3.82739C47.039 5.43628 47.8555 7.38482 47.8555 9.67301C47.8555 11.9612 47.039 13.9097 45.4407 15.5008C43.8425 17.1096 41.8446 17.8962 39.4819 17.8962H33.4362V27.049H29.5273V1.41406ZM39.4819 5.09662L33.4362 5.07875V14.2315H39.4819C40.698 14.2315 41.7577 13.8025 42.6264 12.9265C43.495 12.0506 43.9293 10.9601 43.9293 9.67301C43.9293 8.3859 43.495 7.29543 42.6264 6.41949C41.7577 5.52566 40.698 5.09662 39.4819 5.09662Z" fill="#3E3E3E"/>
<path d="M24.362 9.47566V27.0483H20.8006V9.47566H24.362ZM24.7268 3.98757C24.7268 4.63113 24.5183 5.14955 24.1188 5.56071C23.7018 5.98974 23.198 6.18639 22.59 6.18639C21.9646 6.18639 21.4607 5.98974 21.0612 5.56071C20.6442 5.14955 20.4531 4.63113 20.4531 3.98757C20.4531 3.3619 20.6442 2.84348 21.0612 2.43232C21.4607 2.00328 21.9646 1.80664 22.59 1.80664C23.198 1.80664 23.7018 2.00328 24.1188 2.43232C24.5183 2.84348 24.7268 3.3619 24.7268 3.98757Z" fill="#3E3E3E"/>
<path d="M13.8808 19.7197C13.8808 18.9331 13.6376 18.2896 13.1511 17.7533C12.6647 17.217 12.0219 16.8058 11.2575 16.5019C10.4931 16.198 9.64185 15.9299 8.70373 15.6796C7.7656 15.4294 6.82747 15.1255 5.88935 14.7679C4.95122 14.4104 4.08259 13.9814 3.31819 13.4808C2.55379 12.9803 1.92837 12.2831 1.44193 11.3535C0.955499 10.4239 0.712281 9.31559 0.712281 8.0106C0.712281 6.04419 1.44193 4.38167 2.91861 3.05881C4.37792 1.73595 6.37578 1.05664 8.89483 1.05664C9.81558 1.05664 10.7016 1.18178 11.5528 1.41417C12.4041 1.64657 13.1164 1.91471 13.6723 2.23649C14.2282 2.55827 14.7321 2.86217 15.149 3.18395C15.5659 3.50572 15.8787 3.77387 16.0871 3.98839L16.3651 4.34592L13.8808 6.92014C13.8287 6.88438 13.7592 6.795 13.6723 6.68774C13.5855 6.58048 13.3944 6.40172 13.0816 6.15145C12.7689 5.90117 12.4389 5.68666 12.0914 5.49002C11.7439 5.29337 11.2749 5.11461 10.7016 4.95372C10.1283 4.81071 9.52024 4.72132 8.89483 4.72132C7.60925 4.72132 6.56688 5.06098 5.78511 5.70453C5.00334 6.36596 4.62114 7.13465 4.62114 8.0106C4.62114 8.79717 4.86436 9.4586 5.35079 9.99489C5.83723 10.5312 6.46265 10.9602 7.22705 11.2641C7.99145 11.568 8.86008 11.8362 9.79821 12.0864C10.7363 12.3367 11.6745 12.6227 12.6126 12.9803C13.5507 13.3378 14.402 13.7668 15.1664 14.2674C15.9308 14.7679 16.5736 15.483 17.06 16.4126C17.5464 17.3421 17.7897 18.4505 17.7897 19.7376C17.7897 21.99 16.9905 23.8492 15.427 25.2793C13.846 26.7094 11.6745 27.4245 8.89483 27.4245C7.74823 27.4245 6.67112 27.2815 5.64613 26.9955C4.62114 26.7094 3.78725 26.3877 3.12709 25.9944C2.46692 25.6011 1.89363 25.2078 1.40719 24.8145C0.920753 24.4212 0.555927 24.0995 0.347454 23.8313L0 23.3844L2.4843 20.8281C2.51904 20.8996 2.60591 21.0068 2.71014 21.1498C2.81438 21.2928 3.07497 21.5252 3.45717 21.8649C3.83937 22.2045 4.27369 22.5085 4.72538 22.7587C5.17707 23.009 5.76774 23.2414 6.51476 23.4559C7.26179 23.6704 8.06094 23.7598 8.89483 23.7598C10.4236 23.7598 11.6397 23.3844 12.5431 22.5978C13.4291 21.8291 13.8808 20.8638 13.8808 19.7197Z" fill="#3E3E3E"/>
</svg>
