<svg xmlns="http://www.w3.org/2000/svg" width="190" height="21" viewBox="0 0 190 21" fill="none">
    <path d="M84.2072 10.4927H85.5472V8.32398H87.3237V10.4927H88.9282V11.682H87.3237V15.5438C87.3237 15.7117 87.3315 15.8564 87.3472 15.9775C87.3629 16.0989 87.399 16.2014 87.4563 16.2853C87.5128 16.3694 87.5984 16.4322 87.713 16.4742C87.8276 16.5162 87.983 16.5373 88.1809 16.5373C88.3057 16.5373 88.4297 16.535 88.5545 16.5302C88.6793 16.5256 88.8041 16.5092 88.9282 16.4813V17.7126C88.7311 17.7311 88.5388 17.7497 88.352 17.7685C88.1652 17.7871 87.9728 17.7965 87.7758 17.7965C87.308 17.7965 86.9311 17.7567 86.6454 17.6775C86.3597 17.5984 86.1367 17.4817 85.9758 17.3278C85.8149 17.1738 85.7058 16.9804 85.6485 16.7471C85.5912 16.5141 85.5574 16.2482 85.5472 15.9496V11.682H84.2072V10.4927ZM79.626 16.6632C80.0208 16.6632 80.3639 16.5886 80.6543 16.4393C80.9456 16.2902 81.1842 16.0943 81.3718 15.8516C81.5586 15.6092 81.6959 15.3363 81.7839 15.0331C81.8726 14.7301 81.9166 14.4199 81.9166 14.1027C81.9166 13.7947 81.8726 13.4869 81.7839 13.1791C81.6959 12.8713 81.5586 12.5985 81.3718 12.3606C81.1842 12.1228 80.9456 11.9293 80.6543 11.7799C80.3639 11.6308 80.0208 11.5561 79.626 11.5561C79.2311 11.5561 78.8889 11.6308 78.5976 11.7799C78.3069 11.9293 78.068 12.1228 77.881 12.3606C77.694 12.5985 77.5563 12.8713 77.4681 13.1791C77.3797 13.4869 77.3357 13.7947 77.3357 14.1027C77.3357 14.4199 77.3797 14.7301 77.4681 15.0331C77.5563 15.3363 77.694 15.6092 77.881 15.8516C78.068 16.0943 78.3069 16.2902 78.5976 16.4393C78.8889 16.5886 79.2311 16.6632 79.626 16.6632ZM79.626 17.9224C78.9823 17.9224 78.4082 17.8267 77.9044 17.6356C77.4004 17.4445 76.9746 17.1809 76.6267 16.8451C76.2785 16.5092 76.0136 16.1083 75.832 15.6418C75.6501 15.1754 75.5593 14.6623 75.5593 14.1027C75.5593 13.5523 75.6501 13.044 75.832 12.5775C76.0136 12.1112 76.2785 11.71 76.6267 11.3742C76.9746 11.0384 77.4004 10.7749 77.9044 10.5836C78.4082 10.3926 78.9823 10.2968 79.626 10.2968C80.2705 10.2968 80.8442 10.3926 81.3483 10.5836C81.8515 10.7749 82.2777 11.0384 82.6255 11.3742C82.974 11.71 83.2385 12.1112 83.4207 12.5775C83.602 13.044 83.693 13.5523 83.693 14.1027C83.693 14.6623 83.602 15.1754 83.4207 15.6418C83.2385 16.1083 82.974 16.5092 82.6255 16.8451C82.2777 17.1809 81.8515 17.4445 81.3483 17.6356C80.8442 17.8267 80.2705 17.9224 79.626 17.9224ZM72.4117 7.73633H74.1881V17.7265H72.4117V7.73633ZM69.0479 10.4927H70.8242V17.7265H69.0479V10.4927ZM69.0479 7.73633H70.8242V9.24746H69.0479V7.73633ZM65.9159 14.1166C65.9159 13.7902 65.8692 13.473 65.7756 13.1652C65.6822 12.8573 65.5419 12.5845 65.3549 12.3466C65.168 12.1087 64.9343 11.9177 64.6537 11.7729C64.3733 11.6284 64.0512 11.5561 63.6877 11.5561C62.9397 11.5561 62.3761 11.7894 61.997 12.2556C61.6177 12.7223 61.4282 13.3424 61.4282 14.1166C61.4282 14.4804 61.4774 14.8186 61.5763 15.131C61.6749 15.4436 61.8229 15.7117 62.0204 15.9356C62.2175 16.1594 62.454 16.3367 62.7294 16.4673C63.0045 16.598 63.3239 16.6632 63.6877 16.6632C64.0928 16.6632 64.4356 16.5886 64.716 16.4393C64.9965 16.2902 65.2276 16.0965 65.4095 15.8587C65.5911 15.6208 65.7211 15.3503 65.799 15.047C65.877 14.744 65.9159 14.4339 65.9159 14.1166ZM59.7142 10.4927H61.3971V11.4721H61.4282C61.6776 11.0524 62.0255 10.7516 62.4722 10.5697C62.9188 10.3878 63.4018 10.2968 63.9214 10.2968C64.555 10.2968 65.1081 10.3972 65.5809 10.5977C66.0534 10.7984 66.4457 11.0734 66.7573 11.4232C67.069 11.7729 67.3027 12.1811 67.4586 12.6474C67.6143 13.114 67.6923 13.6129 67.6923 14.1446C67.6923 14.6297 67.6222 15.1008 67.482 15.5577C67.3417 16.0149 67.1286 16.4183 66.8431 16.7681C66.5572 17.1179 66.1964 17.3978 65.7601 17.6076C65.3238 17.8175 64.8096 17.9224 64.2175 17.9224C63.9576 17.9224 63.6979 17.9014 63.4384 17.8594C63.1785 17.8175 62.9293 17.7497 62.6904 17.6566C62.4513 17.5634 62.2308 17.4445 62.0281 17.2998C61.8256 17.1552 61.6567 16.9849 61.5217 16.7891H61.4906V20.399H59.7142V10.4927ZM53.7464 10.4927H55.0864V8.32398H56.8628V10.4927H58.4678V11.682H56.8628V15.5438C56.8628 15.7117 56.8706 15.8564 56.8862 15.9775C56.9017 16.0989 56.938 16.2014 56.9953 16.2853C57.0522 16.3694 57.1379 16.4322 57.2524 16.4742C57.3665 16.5162 57.5224 16.5373 57.7198 16.5373C57.8445 16.5373 57.9692 16.535 58.0938 16.5302C58.2185 16.5256 58.3431 16.5092 58.4678 16.4813V17.7126C58.2703 17.7311 58.0783 17.7497 57.8912 17.7685C57.7042 17.7871 57.5119 17.7965 57.3147 17.7965C56.8473 17.7965 56.4705 17.7567 56.1849 17.6775C55.8991 17.5984 55.6759 17.4817 55.515 17.3278C55.3538 17.1738 55.2447 16.9804 55.1877 16.7471C55.1305 16.5141 55.0966 16.2482 55.0864 15.9496V11.682H53.7464V10.4927ZM47.8876 15.4039C47.9394 15.8704 48.1369 16.1969 48.4797 16.3833C48.8224 16.57 49.2327 16.6632 49.7106 16.6632C49.8767 16.6632 50.0664 16.6516 50.2794 16.6282C50.4922 16.605 50.6923 16.5607 50.8793 16.4952C51.0662 16.4301 51.2195 16.3343 51.339 16.2084C51.4583 16.0825 51.5128 15.9169 51.5026 15.7117C51.4921 15.5066 51.4091 15.3387 51.2533 15.208C51.0975 15.0775 50.8973 14.9725 50.6534 14.8931C50.4091 14.814 50.1314 14.7462 49.8197 14.6903C49.5081 14.6343 49.1911 14.5737 48.8692 14.5084C48.5367 14.4433 48.2173 14.3639 47.9109 14.2705C47.6044 14.1774 47.329 14.0515 47.0851 13.8927C46.8408 13.7342 46.6461 13.5313 46.5007 13.2841C46.3552 13.037 46.2826 12.7314 46.2826 12.3676C46.2826 11.9759 46.3889 11.647 46.602 11.3812C46.8148 11.1154 47.0851 10.9009 47.4123 10.7376C47.7396 10.5745 48.103 10.4601 48.503 10.3948C48.9028 10.3296 49.2845 10.2968 49.6483 10.2968C50.0637 10.2968 50.461 10.3366 50.8404 10.4157C51.2195 10.4951 51.5623 10.6235 51.8687 10.8005C52.175 10.9779 52.4298 11.2087 52.6323 11.4931C52.8349 11.7777 52.962 12.1205 53.014 12.5215H51.1598C51.0765 12.1391 50.8818 11.8827 50.5755 11.752C50.2689 11.6214 49.9183 11.5561 49.5236 11.5561C49.399 11.5561 49.2509 11.5654 49.0796 11.584C48.9081 11.6028 48.7471 11.6379 48.5966 11.689C48.4458 11.7404 48.3185 11.8149 48.2147 11.9128C48.1108 12.0108 48.0589 12.1391 48.0589 12.2976C48.0589 12.4935 48.1342 12.6522 48.2849 12.7734C48.4354 12.8947 48.6327 12.9951 48.877 13.0742C49.1209 13.1536 49.399 13.2211 49.7106 13.2771C50.0223 13.3331 50.3441 13.3938 50.6768 13.459C50.9986 13.5244 51.3156 13.6037 51.6273 13.6968C51.9389 13.7902 52.2167 13.9161 52.4609 14.0746C52.7048 14.2333 52.9023 14.4339 53.0531 14.6763C53.2035 14.919 53.279 15.2174 53.279 15.5718C53.279 16.0009 53.1699 16.3647 52.9517 16.6632C52.7336 16.9618 52.4504 17.2043 52.1025 17.3907C51.7544 17.5775 51.3674 17.7126 50.9417 17.7965C50.5156 17.8804 50.0948 17.9224 49.6795 17.9224C49.1704 17.9224 48.7003 17.8711 48.2694 17.7685C47.8381 17.6659 47.4641 17.5097 47.1475 17.2998C46.8304 17.09 46.5811 16.8289 46.3994 16.5162C46.2176 16.2038 46.1214 15.833 46.1111 15.4039H47.8876ZM44.8647 17.7265H43.1196V16.7191H43.0884C42.8703 17.0829 42.5454 17.3746 42.1146 17.5936C41.6833 17.8127 41.2444 17.9224 40.7978 17.9224C39.7382 17.9224 38.9721 17.6869 38.4994 17.2158C38.0267 16.7449 37.7905 16.0335 37.7905 15.082V10.4927H39.5669V14.9281C39.5669 15.5626 39.7017 16.0103 39.972 16.2714C40.2419 16.5326 40.621 16.6632 41.1094 16.6632C41.4834 16.6632 41.795 16.612 42.0444 16.5092C42.2937 16.4067 42.4963 16.2692 42.652 16.0965C42.8079 15.924 42.9194 15.7165 42.9871 15.4739C43.0545 15.2314 43.0884 14.9701 43.0884 14.6903V10.4927H44.8647V17.7265ZM31.9917 10.4927H33.659V11.8918H33.6902C33.742 11.696 33.8433 11.5049 33.994 11.3183C34.1445 11.1318 34.3264 10.9615 34.5394 10.8076C34.7522 10.6536 34.9886 10.5301 35.2484 10.4367C35.508 10.3436 35.7728 10.2968 36.0431 10.2968C36.2508 10.2968 36.3937 10.3016 36.4716 10.3109C36.5496 10.3202 36.6299 10.3296 36.7132 10.3388V11.8779C36.5885 11.8593 36.4612 11.8429 36.3313 11.8289C36.2013 11.8149 36.0742 11.808 35.9496 11.808C35.6481 11.808 35.3652 11.8617 35.1004 11.9688C34.8355 12.0762 34.6042 12.2347 34.407 12.4445C34.2095 12.6545 34.0537 12.9133 33.9395 13.2211C33.8251 13.5289 33.7681 13.8836 33.7681 14.2845V17.7265H31.9917V10.4927ZM23.375 7.73633H32.3815V9.24746H28.8443V17.7265H26.8965V9.24746H23.375V7.73633Z" fill="#F7F8F2"/>
    <path d="M21.2986 7.73581L13.1628 7.73461L10.6493 0.787109L8.13607 7.73383L0 7.73263L6.58241 12.0282L4.06872 18.9763L10.6502 14.6827L17.2299 18.9763L14.7167 12.0297L21.2986 7.73581Z" fill="#00B67A"/>
    <path d="M15.2886 13.6042L14.7189 12.0293L10.6523 14.6823L15.2886 13.6042Z" fill="#F7F8F2"/>
    <path d="M100.418 4.15625H117.094V19.1168H100.418V4.15625ZM118.484 4.15625H135.16V19.1168H118.484V4.15625ZM136.55 4.15625H153.226V19.1168H136.55V4.15625ZM154.616 4.15625H171.292V19.1168H154.616V4.15625ZM172.682 4.15625H189.358V19.1168H172.682V4.15625Z" fill="#00B67A"/>
    <path d="M189.36 4.15625H181.02V19.1209H189.36V4.15625Z" fill="#AAD7D5"/>
    <path d="M108.759 14.2379L111.295 13.6613L112.354 16.5911L108.759 14.2379ZM114.595 10.451H110.131L108.759 6.67969L107.386 10.451H102.922L106.535 12.7886L105.163 16.5599L108.776 14.2223L110.999 12.7886L114.595 10.451ZM126.825 14.2379L129.361 13.6613L130.42 16.5911L126.825 14.2379ZM132.661 10.451H128.197L126.825 6.67969L125.452 10.451H120.988L124.601 12.7886L123.229 16.5599L126.842 14.2223L129.065 12.7886L132.661 10.451ZM144.891 14.2379L147.427 13.6613L148.486 16.5911L144.891 14.2379ZM150.727 10.451H146.263L144.891 6.67969L143.518 10.451H139.054L142.667 12.7886L141.295 16.5599L144.908 14.2223L147.131 12.7886L150.727 10.451ZM162.956 14.2379L165.493 13.6613L166.552 16.5911L162.956 14.2379ZM168.793 10.451H164.329L162.956 6.67969L161.584 10.451H157.12L160.733 12.7886L159.361 16.5599L162.974 14.2223L165.197 12.7886L168.793 10.451ZM181.022 14.2379L183.559 13.6613L184.618 16.5911L181.022 14.2379ZM186.859 10.451H182.395L181.022 6.67969L179.65 10.451H175.186L178.799 12.7886L177.427 16.5599L181.04 14.2223L183.263 12.7886L186.859 10.451Z" fill="#F7F8F2"/>
  </svg>